<?xml version="1.0" encoding="UTF-8"?>
<!DOCTYPE svg PUBLIC "-//W3C//DTD SVG 1.1//EN" "http://www.w3.org/Graphics/SVG/1.1/DTD/svg11.dtd">
<svg xmlns="http://www.w3.org/2000/svg" version="1.1" width="85px" height="74px" style="shape-rendering:geometricPrecision; text-rendering:geometricPrecision; image-rendering:optimizeQuality; fill-rule:evenodd; clip-rule:evenodd" xmlns:xlink="http://www.w3.org/1999/xlink">
<g><path style="opacity:1" fill="#17b3da" d="M 47.5,-0.5 C 48.8333,-0.5 50.1667,-0.5 51.5,-0.5C 52.4577,0.961599 53.6244,2.29493 55,3.5C 56.3756,2.29493 57.5423,0.961599 58.5,-0.5C 59.8333,-0.5 61.1667,-0.5 62.5,-0.5C 66.1684,1.3919 67.3351,4.3919 66,8.5C 62.0434,12.5299 58.3768,12.1965 55,7.5C 51.0328,12.7901 47.1995,12.7901 43.5,7.5C 43.5,5.83333 43.5,4.16667 43.5,2.5C 44.8717,1.48837 46.205,0.488369 47.5,-0.5 Z"/></g>
<g><path style="opacity:1" fill="white" d="M 20.5,-0.5 C 27.1667,-0.5 33.8333,-0.5 40.5,-0.5C 41.1667,0.833333 42.1667,1.83333 43.5,2.5C 43.5,4.16667 43.5,5.83333 43.5,7.5C 42.6836,9.14361 41.3502,10.3103 39.5,11C 33.5,11.6667 27.5,11.6667 21.5,11C 16.5306,7.66003 16.1972,3.82669 20.5,-0.5 Z"/></g>
<g><path style="opacity:1" fill="white" d="M 48.5,18.5 C 48.5,20.1667 48.5,21.8333 48.5,23.5C 47.3734,24.1217 46.3734,24.955 45.5,26C 36.1667,26.6667 26.8333,26.6667 17.5,26C 16.1772,25.1841 15.5106,24.0174 15.5,22.5C 15.5,21.1667 15.5,19.8333 15.5,18.5C 16.343,16.8267 17.6763,15.66 19.5,15C 27.8333,14.3333 36.1667,14.3333 44.5,15C 46.3502,15.6897 47.6836,16.8564 48.5,18.5 Z"/></g>
<g><path style="opacity:1" fill="#17b3da" d="M 48.5,23.5 C 48.5,21.8333 48.5,20.1667 48.5,18.5C 48.9528,17.5416 49.6195,16.7083 50.5,16C 59.8333,15.3333 69.1667,15.3333 78.5,16C 81.4251,19.696 81.0917,23.0293 77.5,26C 68.8333,26.6667 60.1667,26.6667 51.5,26C 50.6266,24.955 49.6266,24.1217 48.5,23.5 Z"/></g>
<g><path style="opacity:1" fill="#17b3da" d="M 15.5,18.5 C 15.5,19.8333 15.5,21.1667 15.5,22.5C 13.6081,26.1684 10.6081,27.3351 6.5,26C 2.63266,22.5821 2.63266,19.2488 6.5,16C 10.0997,14.9271 13.0997,15.7605 15.5,18.5 Z"/></g>
<g><path style="opacity:1" fill="white" d="M 84.5,34.5 C 84.5,35.8333 84.5,37.1667 84.5,38.5C 80.4254,43.7382 76.2588,43.7382 72,38.5C 70.1962,41.8171 67.3628,43.1504 63.5,42.5C 59.5666,42.9491 56.4,41.6157 54,38.5C 53.5,40.3333 52.3333,41.5 50.5,42C 34.8333,42.6667 19.1667,42.6667 3.5,42C 2.05104,40.8978 0.717703,39.7311 -0.5,38.5C -0.5,37.1667 -0.5,35.8333 -0.5,34.5C 0.363622,33.3117 1.36362,32.1451 2.5,31C 18.8333,30.3333 35.1667,30.3333 51.5,31C 52.3333,31.8333 53.1667,32.6667 54,33.5C 56.3959,30.9874 59.3959,29.9874 63,30.5C 66.6041,29.9874 69.6041,30.9874 72,33.5C 76.6385,29.2856 80.8052,29.619 84.5,34.5 Z"/></g>
<g><path style="opacity:1" fill="#17b3da" d="M 20.5,49.5 C 20.5,50.8333 20.5,52.1667 20.5,53.5C 19.7101,54.7942 18.7101,55.9609 17.5,57C 13.0998,57.9777 8.93309,57.4777 5,55.5C 2.80437,49.3245 5.13771,45.9912 12,45.5C 15.6177,45.4161 18.451,46.7494 20.5,49.5 Z"/></g>
<g><path style="opacity:1" fill="white" d="M 32.5,49.5 C 32.5,50.8333 32.5,52.1667 32.5,53.5C 30.6081,57.1684 27.6081,58.3351 23.5,57C 22.3636,55.8549 21.3636,54.6883 20.5,53.5C 20.5,52.1667 20.5,50.8333 20.5,49.5C 24.5353,44.2891 28.5353,44.2891 32.5,49.5 Z"/></g>
<g><path style="opacity:1" fill="#17b3da" d="M 44.5,49.5 C 44.5,50.8333 44.5,52.1667 44.5,53.5C 40.5,58.8333 36.5,58.8333 32.5,53.5C 32.5,52.1667 32.5,50.8333 32.5,49.5C 34.2099,47.8004 36.2099,46.4671 38.5,45.5C 41.225,45.937 43.225,47.2704 44.5,49.5 Z"/></g>
<g><path style="opacity:1" fill="white" d="M 44.5,53.5 C 44.5,52.1667 44.5,50.8333 44.5,49.5C 45.2899,48.2058 46.2899,47.0391 47.5,46C 57.5,45.3333 67.5,45.3333 77.5,46C 82.7342,49.7998 82.7342,53.4665 77.5,57C 67.5,57.6667 57.5,57.6667 47.5,57C 45.9443,56.2798 44.9443,55.1132 44.5,53.5 Z"/></g>
<g><path style="opacity:1" fill="#17b3da" d="M 20.5,61.5 C 34.8372,61.3334 49.1705,61.5001 63.5,62C 67.4851,65.3807 67.4851,68.714 63.5,72C 49.1667,72.6667 34.8333,72.6667 20.5,72C 16.6054,68.5106 16.6054,65.0106 20.5,61.5 Z"/></g>
</svg>
