<svg width="50" height="50" viewBox="0 0 50 50" fill="none" xmlns="http://www.w3.org/2000/svg">
<rect opacity="0.25" x="4" y="4" width="11" height="11" rx="1" fill="#0A0000"/>
<rect opacity="0.5" x="4" y="15" width="11" height="10" rx="1" fill="#0A0000"/>
<rect opacity="0.25" x="4" y="25" width="11" height="11" rx="1" fill="#0A0000"/>
<rect opacity="0.15" x="4" y="36" width="11" height="10" rx="1" fill="#0A0000"/>
<rect opacity="0.5" x="15" y="4" width="10" height="11" rx="1" fill="#0A0000"/>
<rect x="15" y="15" width="10" height="10" rx="1" fill="#0A0000"/>
<rect opacity="0.5" x="15" y="25" width="10" height="11" rx="1" fill="#0A0000"/>
<rect opacity="0.25" x="15" y="36" width="10" height="10" rx="1" fill="#0A0000"/>
<rect opacity="0.25" x="25" y="4" width="10" height="11" rx="1" fill="#0A0000"/>
<rect opacity="0.5" x="25" y="15" width="10" height="10" rx="1" fill="#0A0000"/>
<rect opacity="0.25" x="25" y="25" width="10" height="11" rx="1" fill="#0A0000"/>
<rect opacity="0.15" x="25" y="36" width="10" height="10" rx="1" fill="#0A0000"/>
<rect opacity="0.15" x="35" y="4" width="11" height="11" rx="1" fill="#0A0000"/>
<rect opacity="0.25" x="35" y="15" width="11" height="10" rx="1" fill="#0A0000"/>
<rect opacity="0.15" x="35" y="25" width="11" height="11" rx="1" fill="#0A0000"/>
</svg>
