<svg width="50" height="50" viewBox="0 0 50 50" fill="none" xmlns="http://www.w3.org/2000/svg">
<path opacity="0.5" d="M9 13V34M9 13H13M9 13H5M9 34H5M9 34H13" stroke="#0A0000" stroke-width="2" stroke-linecap="round"/>
<path d="M20 6V40M20 6H24M20 6H16M20 40H16M20 40H24" stroke="#0A0000" stroke-width="4" stroke-linecap="round"/>
<path d="M31 9V45M31 9H35M31 9H27M31 45H27M31 45H35" stroke="#0A0000" stroke-width="2" stroke-linecap="round"/>
<path opacity="0.5" d="M41 19V37M41 19H45M41 19H37M41 37H37M41 37H45" stroke="#0A0000" stroke-width="2" stroke-linecap="round"/>
</svg>
